<?xml version="1.0" encoding="UTF-8"?>
<svg width="56" height="56" version="1.1" viewBox="0 0 56 56" xmlns="http://www.w3.org/2000/svg">
 <defs>
  <filter id="filter2582" x="-1.08e-5" y="-1.08e-5" width="1" height="1" color-interpolation-filters="sRGB">
   <feGaussianBlur stdDeviation="0.00024881212"/>
  </filter>
  <linearGradient id="linearGradient2677" x1="10" x2="46" y1="10" y2="46" gradientTransform="matrix(1.0572,0,0,1.0572,-1.6013,-1.6013)" gradientUnits="userSpaceOnUse">
   <stop stop-color="#190d04" offset="0"/>
   <stop stop-color="#483424" offset=".5"/>
   <stop stop-color="#cfbdb0" offset="1"/>
  </linearGradient>
  <linearGradient id="linearGradient926" x1="8" x2="48" y1="8" y2="48" gradientUnits="userSpaceOnUse">
   <stop stop-color="#cfbdb0" offset="0"/>
   <stop stop-color="#483424" offset=".5"/>
   <stop stop-color="#120e0b" offset="1"/>
  </linearGradient>
 </defs>
 <circle id="outerCircle" transform="matrix(1.0128 0 0 1.0128 -.35814 -.35813)" cx="28" cy="28" r="27.646" fill="url(#linearGradient926)" filter="url(#filter2582)" stroke="#483424" stroke-width=".5"/>
 <circle id="innerCircle" cx="28" cy="28" r="25.207" fill="#483424" stroke="url(#linearGradient2677)" stroke-width="1.5"/>
 <path d="m28 15.333c-5.152 0-9.3333 4.1813-9.3333 9.3333v13.067h18.667v-13.067c0-5.152-4.1813-9.3333-9.3333-9.3333zm7.4667 13.067h-5.6v5.6h-3.7333v-5.6h-5.6v-3.7333h5.6v-5.6h3.7333v5.6h5.6z" fill="#324734" fill-opacity=".32" stroke="#808080" stroke-opacity=".75"/>
 <path d="m28 47.067c2.0533 0 3.7147-1.6613 3.7147-3.7147h-7.4293c0 2.0533 1.6613 3.7147 3.7147 3.7147zm13.067-11.2v-11.2c0-6.2533-4.4053-11.48-10.267-12.749v-2.184c0-1.5493-1.2507-2.8-2.8-2.8s-2.8 1.2507-2.8 2.8v2.184c-5.8613 1.2693-10.267 6.496-10.267 12.749v11.2l-3.7333 3.7333v1.8667h33.6v-1.8667zm-3.7333 1.8667h-18.667v-13.067c0-5.152 4.1813-9.3333 9.3333-9.3333s9.3333 4.1813 9.3333 9.3333zm-7.4667-13.067v-5.6h-3.7333v5.6h-5.6v3.7333h5.6v5.6h3.7333v-5.6h5.6v-3.7333z" fill="#324733" fill-opacity=".75" stroke="#808080" stroke-opacity=".75"/>
</svg>
