<?xml version="1.0" encoding="UTF-8"?>
<svg width="56" height="56" version="1.1" viewBox="0 0 56 56" xmlns="http://www.w3.org/2000/svg">
 <defs>
  <linearGradient id="linearGradient2572" x1="8" x2="48" y1="8" y2="48" gradientUnits="userSpaceOnUse">
   <stop stop-color="#efb890" offset="0"/>
   <stop stop-color="#6c2f00" offset=".5"/>
   <stop stop-color="#190d04" offset="1"/>
  </linearGradient>
  <filter id="filter2582" x="-1.08e-5" y="-1.08e-5" width="1" height="1" color-interpolation-filters="sRGB">
   <feGaussianBlur stdDeviation="0.00024881212"/>
  </filter>
  <linearGradient id="linearGradient2677" x1="10" x2="46" y1="10" y2="46" gradientTransform="matrix(1.0572 0 0 1.0572 -1.6013 -1.6013)" gradientUnits="userSpaceOnUse">
   <stop stop-color="#190d04" offset="0"/>
   <stop stop-color="#6c2f00" offset=".5"/>
   <stop stop-color="#efb890" offset="1"/>
  </linearGradient>
 </defs>
 <circle id="outerCircle" transform="matrix(1.0128 0 0 1.0128 -.35814 -.35813)" cx="28" cy="28" r="27.646" fill="url(#linearGradient2572)" filter="url(#filter2582)" stroke="#6c2f00" stroke-width=".5"/>
 <circle id="innerCircle" cx="28" cy="28" r="25.207" fill="#6c2f00" stroke="url(#linearGradient2677)" stroke-width="1.5"/>
 <g stroke="#ffffff">
  <path d="m36.088 15.45h-20.775c-1.9044 0-3.4625 1.5581-3.4625 3.4625v20.775c0 1.9044 1.5581 3.4625 3.4625 3.4625h20.775c1.9044 0 3.4625-1.5581 3.4625-3.4625v-20.775c-0.034462-2.2393-0.99927-3.428-3.4625-3.4625z" fill="#1b5e20" fill-opacity=".49804"/>
  <path d="m35.65 40.124h-20.4v-20.774h11.9v-3.4h-11.9c-1.87 0-3.4 1.53-3.4 3.4v20.4c0 1.87 1.53 3.4 3.4 3.4h20.4c1.87 0 3.4-1.53 3.4-3.4v-11.9h-3.4z" fill="#464646" stroke-width=".5"/>
  <path d="m39.05 10.85h-3.4v5.1h-5.1c0.017 0.017 0 3.4 0 3.4h5.1v5.083c0.017 0.017 3.4 0 3.4 0v-5.083h5.1v-3.4h-5.1z" fill="#1b5e20"/>
 </g>
 <g fill="#ffffff" stroke="#000000">
  <path d="m18.65 22.75h13.6v3.4h-13.6z"/>
  <path d="m18.65 27.85v3.4h13.6v-3.4h-5.1z"/>
  <path d="m18.65 32.95h13.6v3.4h-13.6z"/>
 </g>
</svg>
