<?xml version="1.0" encoding="UTF-8" standalone="no"?>
<svg
   xmlns:dc="http://purl.org/dc/elements/1.1/"
   xmlns:cc="http://creativecommons.org/ns#"
   xmlns:rdf="http://www.w3.org/1999/02/22-rdf-syntax-ns#"
   xmlns:svg="http://www.w3.org/2000/svg"
   xmlns="http://www.w3.org/2000/svg"
   id="svg857"
   version="1.1"
   viewBox="0 0 56 56"
   height="56"
   width="56">
  <defs
     id="defs851" />
  <metadata
     id="metadata854">
    <rdf:RDF>
      <cc:Work
         rdf:about="">
        <dc:format>image/svg+xml</dc:format>
        <dc:type
           rdf:resource="http://purl.org/dc/dcmitype/StillImage" />
        <dc:title></dc:title>
      </cc:Work>
    </rdf:RDF>
  </metadata>
  <g
     id="layer1">
    <path
       d="M12,4c-4.41,0 -8,3.59 -8,8s3.59,8 8,8 8,-3.59 8,-8 -3.59,-8 -8,-8zM17,13h-4v4h-2v-4L7,13v-2h4L11,7h2v4h4v2z"
       style="fill:#404040;stroke:#000000;stroke-width:0.708421"
       id="path1420" />
    <path
       d="M13,7h-2v4L7,11v2h4v4h2v-4h4v-2h-4zM12,2C6.48,2 2,6.48 2,12s4.48,10 10,10 10,-4.48 10,-10S17.52,2 12,2zM12,20c-4.41,0 -8,-3.59 -8,-8s3.59,-8 8,-8 8,3.59 8,8 -3.59,8 -8,8z"
       style="fill:#404040;stroke:#000000;stroke-width:2.31302"
       id="path1422" />
  </g>
</svg>
