<?xml version="1.0" encoding="UTF-8"?>
<svg width="24" height="24" version="1.1" viewBox="0 0 6.35 6.35" xmlns="http://www.w3.org/2000/svg">
 <defs>
  <filter id="filter2920" x="-.072" y="-.072" width="1.144" height="1.144" color-interpolation-filters="sRGB">
   <feGaussianBlur stdDeviation="0.027781275"/>
  </filter>
  <filter id="filter3107" x="-.092795" y="-.058819" width="1.1856" height="1.1176" color-interpolation-filters="sRGB">
   <feGaussianBlur stdDeviation="0.2298443"/>
  </filter>
 </defs>
 <g stroke="#010101">
  <ellipse cx="2.6458" cy="5.1594" rx="2.4987" ry="1.0435" fill="#000000" fill-opacity=".2" stroke-opacity=".5" stroke-width=".29426"/>
  <ellipse cx="2.6458" cy="3.0427" rx="2.4987" ry="1.0435" fill="none" stroke-opacity=".5" stroke-width=".29426"/>
  <path d="m0.14652 1.2049v3.9581h0.014901a2.4846 1.0407 0 0 0 2.4844 1.0405 2.4846 1.0407 0 0 0 2.4844-1.0405h0.014901v-3.9581h-0.014901a2.4846 1.0407 0 0 1-2.4844 1.0405 2.4846 1.0407 0 0 1-2.4844-1.0405z" fill="#000000" fill-opacity=".19608" stroke-linejoin="round" stroke-width=".29304"/>
  <ellipse cx="2.6458" cy="1.1906" rx="2.4987" ry="1.0435" fill="#000000" fill-opacity=".19608" stroke-width=".29426"/>
  <path d="m5.1445 3.0427a2.4987 1.0435 0 0 1-2.4261 1.0431 2.4987 1.0435 0 0 1-2.5671-0.98245" fill="none" stroke-opacity=".9879" stroke-width=".29426"/>
  <g transform="translate(-.027418 -.027446)" stroke-linejoin="round" stroke-width=".026458">
   <path transform="matrix(.26458 0 0 .26458 .027418 .027446)" d="m19.445 13.523c0-0.28123-0.20525 1.0977-0.94531 1.0977-0.84178 0-0.70881-1.1988-1.0527-1.123h-3e-6c-1.0052 0.22148-1.9397 0.75746-2.6543 1.5664-0.23229 0.26295 0.84855 0.74912 0.42773 1.4941-0.42082 0.74502-1.3719 0.03051-1.4785 0.36719-0.32854 1.0376-0.31524 2.1337 0 3.1348 0.10784 0.34246 1.0557-0.37392 1.4766 0.37109 0.42082 0.74502-0.70577 1.264-0.42578 1.4922 0.70703 0.57617 1.9529 1.3 0.83789 0.73633" fill="none" filter="url(#filter3107)" stroke="#ffffff" stroke-linejoin="round" stroke-width="1.5"/>
   <path d="m5.5561 3.7231c0.12275 0.072494 0.22985 0.16207 0.32007 0.26411 0.063173 0.071439-0.22488 0.19784-0.11353 0.39512 0.11135 0.19728 0.36268 0.00718 0.39126 0.09811 0.083242 0.26493 0.086812 0.55524-5.75e-5 0.82979-0.028208 0.089149-0.27985-0.10016-0.3912 0.097115-0.11135 0.19728 0.17503 0.32515 0.11384 0.39457-0.18932 0.2148-0.43747 0.35707-0.70402 0.4157-0.090806 0.019976-0.054939-0.29751-0.27767-0.29751-0.22273 0-0.18581 0.31811-0.27816 0.29778-0.13135-0.028922-0.26059-0.07897-0.38321-0.15138-0.12259-0.072395-0.22956-0.16183-0.3197-0.2637-0.063363-0.071598 0.22445-0.1979 0.1131-0.39518-0.11135-0.19728-0.36248-0.0072127-0.39101-0.097893-0.083414-0.26509-0.087053-0.55561-1.212e-4 -0.83036 0.028208-0.089149 0.27985 0.10016 0.3912-0.097116 0.11135-0.19728-0.17462-0.32573-0.11315-0.39536 0.18909-0.21421 0.43674-0.35614 0.70272-0.41479 0.091004-0.020065 0.055538 0.2974 0.27827 0.2974 0.22273 1e-7 0.1861-0.31811 0.27859-0.29771 0.13121 0.028936 0.2603 0.078956 0.38279 0.15129z" fill="#8f8f8f" fill-opacity=".74194" opacity=".996" stroke="none" style="mix-blend-mode:screen"/>
   <g stroke-linejoin="round">
    <ellipse cx="4.8948" cy="4.8948" rx=".46302" ry=".46302" fill="none" filter="url(#filter2920)" stroke="#ffffff" stroke-width=".26458"/>
    <ellipse cx="4.8948" cy="4.8948" rx=".52917" ry=".52917" fill="none" opacity=".998" stroke="#030000" stroke-width=".26458"/>
    <path d="m5.5561 3.7231c0.12275 0.072494 0.22985 0.16207 0.32007 0.26411 0.063173 0.071439-0.22488 0.19784-0.11353 0.39512 0.11135 0.19728 0.36268 0.00718 0.39126 0.09811 0.083242 0.26493 0.086812 0.55524-5.75e-5 0.82979-0.028208 0.089149-0.27985-0.10016-0.3912 0.097115-0.11135 0.19728 0.17503 0.32515 0.11384 0.39457-0.18932 0.2148-0.43747 0.35707-0.70402 0.4157-0.090806 0.019976-0.054939-0.29751-0.27767-0.29751-0.22273 0-0.18581 0.31811-0.27816 0.29778-0.13135-0.028922-0.26059-0.07897-0.38321-0.15138-0.12259-0.072395-0.22956-0.16183-0.3197-0.2637-0.063363-0.071598 0.22445-0.1979 0.1131-0.39518-0.11135-0.19728-0.36248-0.0072127-0.39101-0.097893-0.083414-0.26509-0.087053-0.55561-1.212e-4 -0.83036 0.028208-0.089149 0.27985 0.10016 0.3912-0.097116 0.11135-0.19728-0.17462-0.32573-0.11315-0.39536 0.18909-0.21421 0.43674-0.35614 0.70272-0.41479 0.091004-0.020065 0.055538 0.2974 0.27827 0.2974 0.22273 1e-7 0.1861-0.31811 0.27859-0.29771 0.13121 0.028936 0.2603 0.078956 0.38279 0.15129z" fill="#000000" fill-opacity=".2" opacity=".999" stroke="#030000" stroke-width=".26458" style="mix-blend-mode:normal"/>
   </g>
  </g>
 </g>
</svg>
