<?xml version="1.0" encoding="UTF-8"?>
<svg id="svg984" version="1.1" viewBox="0 0 108 108" xmlns="http://www.w3.org/2000/svg" xmlns:xlink="http://www.w3.org/1999/xlink">
 <defs id="defs964">
  <linearGradient id="linearGradient3223">
   <stop id="stop935" stop-color="#f3e50c" offset="0"/>
   <stop id="stop937" stop-color="#ccad1a" offset="1"/>
  </linearGradient>
  <linearGradient id="linearGradient980" x1="58.458" x2="147.58" y1="60.592" y2="60.592" gradientTransform="matrix(.33971 0 0 .32993 16.273 26.641)" gradientUnits="userSpaceOnUse">
   <stop id="stop940" stop-color="#4d4d4d" offset="0"/>
   <stop id="stop942" stop-color="#808080" offset="1"/>
  </linearGradient>
  <filter id="filter1180" x="-.0055395" y="-.012516" width="1.0111" height="1.025" color-interpolation-filters="sRGB">
   <feGaussianBlur id="feGaussianBlur945" stdDeviation="0.4385468"/>
  </filter>
  <filter id="filter1203" x="-.050245" y="-.022123" width="1.1005" height="1.0442" color-interpolation-filters="sRGB">
   <feGaussianBlur id="feGaussianBlur948" stdDeviation="0.94014075"/>
  </filter>
  <linearGradient id="linearGradient3225" x1="52" x2="62" y1="118" y2="128" gradientTransform="matrix(.33972 0 0 .32994 16.273 26.64)" gradientUnits="userSpaceOnUse">
   <stop id="stop935" stop-color="#f3e50c" offset="0"/>
   <stop id="stop937" stop-color="#ccad1a" offset="1"/>
  </linearGradient>
  <linearGradient id="linearGradient3237" x1="56" x2="60" y1="100" y2="104" gradientTransform="matrix(.33973 0 0 .32995 16.272 26.639)" gradientUnits="userSpaceOnUse">
   <stop id="stop935" stop-color="#f3e50c" offset="0"/>
   <stop id="stop937" stop-color="#ccad1a" offset="1"/>
  </linearGradient>
  <linearGradient id="linearGradient3245" x1="52.9" x2="61.1" y1="107.5" y2="107.5" gradientTransform="matrix(.33971 0 0 .32993 16.273 26.641)" gradientUnits="userSpaceOnUse">
   <stop id="stop953" stop-color="#808080" offset="0"/>
   <stop id="stop955" stop-color="#dcdcdc" offset=".14177"/>
   <stop id="stop957" stop-color="#c0c0c0" offset=".24848"/>
   <stop id="stop959" stop-color="#c0c0c0" offset=".5"/>
   <stop id="stop961" stop-color="#808080" offset="1"/>
  </linearGradient>
 </defs>
 <path id="path966" transform="matrix(.31289 0 0 .30388 19.018 29.02)" d="m95 40-35.016 22.445s-3.9844 1.5547-3.9844 5.5547v26.982a5.8768 5.8118 0 00-4.5137 3.6426 5.8768 5.8118 0 001.5137 6.375l7.9902-.0469a5.8768 5.8118 0 001.4375-6.3926 5.8768 5.8118 0 00-4.4277-3.5683l-.002-25.055s.0044.03604.002-1.9375c0-3 3.0371-3.9746 3.0371-3.9746l34.963-23.025zm-42 65v5h.11523a5.0022 4.7503 0 00-1.1172 3h.002v20.99c1 2 1 7 4 8 3-1 3.8601-5.7335 6-8v-20.986h.002a5.0022 4.7503 0 00-1.1153-3.0039h.11328v-5z" fill="none" filter="url(#filter1203)" stroke="#ffffff" stroke-linejoin="round" stroke-width="1.6286"/>
 <path id="path968" transform="matrix(.31289 0 0 .30388 19.018 29.02)" d="m191 1-103.46 26.666-86.545 53.334 58.514-14.525c-1.8396 10.342 1.4863 18.525 1.4863 18.525s11.437 2.1181 51-14c27-11 35-21 35-21s-3.5532-7.8091-12.15-13.758zm-80.496 50.523-5.5039 3.4766-.0566.01367z" fill="none" filter="url(#filter1180)" stroke="#ffffff" stroke-width="4.3429"/>
 <path id="path970" d="m46.41 37.427 32.37-8.1035-27.079 16.507-32.37 7.8034z" fill="#999999" stroke="#4d4d4d" stroke-width=".66789"/>
 <path id="path972" d="m38.104 54.85s-1.0494-2.5057-.45865-5.666l14.226-3.4504 9.318-5.7158c2.7064 1.8096 3.8235 4.1964 3.8235 4.1964s-2.5031 3.0388-10.951 6.3816c-12.378 4.8979-15.957 4.2543-15.957 4.2543z" fill="url(#linearGradient980)" stroke="#333333" stroke-width=".66789" style="fill:url(#linearGradient980)"/>
 <path id="path974" d="m36.54 58.193h.62575l-.000605-7.9197s.0014.01095.000605-.58877c0-.91166.95024-1.208.95024-1.208l10.94-6.9965-.31289-.30388-10.956 6.8209s-1.2469.47239-1.2469 1.6879v.59828z" fill="#ffd700" stroke="#8a7400" stroke-width=".66789"/>
 <path id="path976" d="m35.601 60.927a1.8389 1.7662 0 01-.4735-1.9375 1.8389 1.7662 0 011.7051-1.1309 1.8389 1.7662 0 011.7187 1.1117 1.8389 1.7662 0 01-.44988 1.9427" fill="url(#linearGradient3237)" stroke="#5f5000" stroke-linejoin="round" stroke-width=".66789" style="fill:url(#linearGradient3237)"/>
 <path id="path978" d="m36.867 61.912a1.5652 1.4436 0 00-.79692.1935 1.5652 1.4436 0 00-.78222 1.2529h.000605v6.3789c.3129.60776.3129 2.1272 1.2516 2.4311.93873-.30389 1.2078-1.7423 1.8774-2.4311v-6.3777h.000605a1.5652 1.4436 0 00-.78041-1.2535 1.5652 1.4436 0 00-.77061-.19409z" fill="url(#linearGradient3225)" stroke="#5f5000" stroke-linejoin="round" stroke-width=".66789" style="fill:url(#linearGradient3225);opacity:.997"/>
 <rect id="rect980" x="35.601" y="60.927" width="2.5031" height="1.5194" fill="url(#linearGradient3245)" stroke="#696969" stroke-linejoin="round" stroke-width=".66789" style="fill:url(#linearGradient3245)"/>
 <path id="path982" d="m87.419 49.049 1.115 1.5367q-6.8172 4.948-15.164 15.244-8.3466 10.296-12.743 19.239l-2.3575 1.5367q-2.9309 1.9669-3.9822 2.9196-.41415-1.4444-1.8159-4.7329l-.89204-1.9977q-1.9114-4.3026-3.568-6.3617-1.6247-2.0591-3.6636-2.7352 3.4406-3.5036 6.3078-3.5036 2.453 0 5.4476 6.4233l.98761 2.1513q5.3839-8.7587 13.826-17.026 8.4422-8.2672 16.502-12.693z" fill="#ed883b" stroke="#361700" stroke-width=".66789"/>
</svg>
