<?xml version="1.0" encoding="UTF-8"?>
<svg width="108" height="108" version="1.1" viewBox="0 0 108 108" xmlns="http://www.w3.org/2000/svg" xmlns:xlink="http://www.w3.org/1999/xlink">
 <defs>
  <linearGradient id="linearGradient3223">
   <stop stop-color="#f3e50c" offset="0"/>
   <stop stop-color="#ccad1a" offset="1"/>
  </linearGradient>
  <linearGradient id="linearGradient980" x1="58.458" x2="147.58" y1="60.592" y2="60.592" gradientTransform="matrix(.5612 0 0 .5612 .125 .125)" gradientUnits="userSpaceOnUse">
   <stop stop-color="#4d4d4d" offset="0"/>
   <stop stop-color="#808080" offset="1"/>
  </linearGradient>
  <filter id="filter1180" x="-.0055395" y="-.012516" width="1.0111" height="1.025" color-interpolation-filters="sRGB">
   <feGaussianBlur stdDeviation="0.4385468"/>
  </filter>
  <filter id="filter1203" x="-.050245" y="-.022123" width="1.1005" height="1.0442" color-interpolation-filters="sRGB">
   <feGaussianBlur stdDeviation="0.94014075"/>
  </filter>
  <linearGradient id="linearGradient3225" x1="52" x2="62" y1="118" y2="128" gradientTransform="matrix(.5612 0 0 .5612 .125 .125)" gradientUnits="userSpaceOnUse" xlink:href="#linearGradient3223"/>
  <linearGradient id="linearGradient3237" x1="56" x2="60" y1="100" y2="104" gradientTransform="matrix(.5612 0 0 .5612 .125 .125)" gradientUnits="userSpaceOnUse" xlink:href="#linearGradient3223"/>
  <linearGradient id="linearGradient3245" x1="52.9" x2="61.1" y1="107.5" y2="107.5" gradientTransform="matrix(.5612 0 0 .5612 .125 .125)" gradientUnits="userSpaceOnUse">
   <stop stop-color="#808080" offset="0"/>
   <stop stop-color="#dcdcdc" offset=".14177"/>
   <stop stop-color="#c0c0c0" offset=".24848"/>
   <stop stop-color="#c0c0c0" offset=".5"/>
   <stop stop-color="#808080" offset="1"/>
  </linearGradient>
 </defs>
 <path transform="matrix(.34222 0 0 .34222 21.333 21.01)" d="m95 40-35.016 22.445s-3.9844 1.5547-3.9844 5.5547v26.982a5.8768 5.8118 0 0 0-4.5137 3.6426 5.8768 5.8118 0 0 0 1.5137 6.375l7.9902-0.0469a5.8768 5.8118 0 0 0 1.4375-6.3926 5.8768 5.8118 0 0 0-4.4277-3.5683l-2e-3 -25.055s0.0044 0.03604 2e-3 -1.9375c0-3 3.0371-3.9746 3.0371-3.9746l34.963-23.025zm-42 65v5h0.11523a5.0022 4.7503 0 0 0-1.1172 3h2e-3v20.99c1 2 1 7 4 8 3-1 3.8601-5.7335 6-8v-20.986h2e-3a5.0022 4.7503 0 0 0-1.1153-3.0039h0.11328v-5z" fill="none" filter="url(#filter1203)" stroke="#ffffff" stroke-linejoin="round" stroke-width="2.902"/>
 <path transform="matrix(.34222 0 0 .34222 21.333 21.01)" d="m191 1-103.46 26.666-86.545 53.334 58.514-14.525c-1.8396 10.342 1.4863 18.525 1.4863 18.525s11.437 2.1181 51-14c27-11 35-21 35-21s-3.5532-7.8091-12.15-13.758zm-80.496 50.523-5.5039 3.4766-0.0566 0.01367z" fill="none" filter="url(#filter1180)" stroke="#ffffff" stroke-width="7.7386"/>
 <g transform="matrix(.66207 0 0 .66207 18.248 18.248)">
  <path d="m49.91 18.472 53.475-13.784-44.734 28.078-53.475 13.273z" fill="#999999" stroke="#4d4d4d"/>
  <path d="m36.189 48.107s-1.7336-4.2622-0.7577-9.6378l23.501-5.869 15.393-9.7224c4.471 3.078 6.3164 7.1379 6.3164 7.1379s-4.1351 5.1689-18.091 10.855c-20.45 8.3313-26.362 7.2365-26.362 7.2365z" fill="url(#linearGradient980)" stroke="#333333" stroke-width="1px"/>
  <path d="m33.605 53.793h1.0338l-1e-3 -13.472s0.0023 0.01863 1e-3 -1.0015c0-1.5507 1.5698-2.0547 1.5698-2.0547l18.072-11.901-0.51689-0.51689-18.099 11.602s-2.0599 0.80353-2.0599 2.8711v1.0176z" fill="#ffd700" stroke="#8a7400"/>
  <g stroke-linejoin="round">
   <path d="m32.054 58.445a3.0377 3.0041 0 0 1-0.78216-3.2955 3.0377 3.0041 0 0 1 2.8166-1.9234 3.0377 3.0041 0 0 1 2.8392 1.8907 3.0377 3.0041 0 0 1-0.74315 3.3043" fill="url(#linearGradient3237)" stroke="#5f5000"/>
   <path d="m34.145 60.12a2.5856 2.4554 0 0 0-1.3165 0.32912 2.5856 2.4554 0 0 0-1.2922 2.1312h1e-3v10.85c0.51689 1.0338 0.51689 3.6182 2.0676 4.1351 1.5507-0.51689 1.9952-2.9636 3.1014-4.1351v-10.848h1e-3a2.5856 2.4554 0 0 0-1.2892-2.1322 2.5856 2.4554 0 0 0-1.2731-0.33012z" fill="url(#linearGradient3225)" stroke="#5f5000"/>
   <rect x="32.054" y="58.445" width="4.1351" height="2.5845" fill="url(#linearGradient3245)" stroke="#696969"/>
  </g>
  <path d="m103.39 45.021 1.6678 2.2984q-10.197 7.4009-22.681 22.8-12.484 15.399-19.06 28.776l-3.5261 2.2984q-4.3838 2.942-5.9562 4.367-0.61945-2.1605-2.7161-7.0791l-1.3342-2.988q-2.859-6.4356-5.3368-9.5155-2.4302-3.0799-5.4798-4.0912 5.1462-5.2404 9.4347-5.2404 3.669 0 8.1481 9.6074l1.4772 3.2178q8.0528-13.101 20.68-25.467 12.627-12.366 24.683-18.985z" fill="#ed883b" stroke="#361700"/>
 </g>
</svg>
