<?xml version="1.0" encoding="UTF-8"?>
<svg width="1178" height="2556" version="1.1" viewBox="0 0 311.68 676.27" xmlns="http://www.w3.org/2000/svg" xmlns:xlink="http://www.w3.org/1999/xlink">
 <defs>
  <linearGradient id="linearGradient1836" x2="311.68" y1="338.14" y2="338.14" gradientTransform="matrix(.9915 0 0 .99609 1.3244 1.3214)" gradientUnits="userSpaceOnUse">
   <stop stop-color="#cccccc" offset="0"/>
   <stop stop-color="#cccccc" offset=".88136"/>
   <stop stop-color="#030303" offset="1"/>
  </linearGradient>
  <linearGradient id="linearGradient1844" x2="311.68" y1="338.14" y2="338.14" gradientTransform="matrix(3.7474 0 0 3.7648 5.0057 4.9943)" gradientUnits="userSpaceOnUse">
   <stop stop-color="#cccccc" offset="0"/>
   <stop stop-color="#000000" offset=".11864"/>
   <stop stop-color="#000000" offset="1"/>
  </linearGradient>
  <linearGradient id="linearGradient1852" x1="1.3229" x2="310.36" y1="338.14" y2="338.14" gradientTransform="matrix(.99143 0 0 .99608 1.3358 1.3266)" gradientUnits="userSpaceOnUse">
   <stop stop-color="#000000" offset="0"/>
   <stop stop-color="#000000" offset=".88136"/>
   <stop stop-color="#cccccc" offset="1"/>
  </linearGradient>
  <linearGradient id="linearGradient1875" x1="1.3229" x2="310.36" y1="338.14" y2="338.14" gradientTransform="matrix(3.7471 0 0 3.7647 5.0486 5.0138)" gradientUnits="userSpaceOnUse">
   <stop stop-color="#000000" offset="0"/>
   <stop stop-color="#cccccc" offset=".11864"/>
   <stop stop-color="#cccccc" offset="1"/>
  </linearGradient>
 </defs>
 <rect width="311.68" height="676.27" rx="35.718" ry="36.61" fill="#333333"/>
 <path id="nonDisplayMask" d="m35.553 0c-19.696 0-35.553 16.551-35.553 37.109v602.06c0 20.558 15.857 37.109 35.553 37.109h240.57c19.696 0 35.553-16.55 35.553-37.109v-602.06c0-20.558-15.857-37.109-35.553-37.109zm-5.904 44.896h252.38c8.8774 0 16.024 7.368 16.024 16.52v553.44c0 9.1524-7.1465 16.521-16.024 16.521h-252.38c-8.8774 0-16.024-7.3685-16.024-16.521v-553.44c0-9.1525 7.1465-16.52 16.024-16.52z" fill="#333333"/>
 <rect x="13.229" y="44.45" width="285.75" height="587.38" rx="16.099" ry="16.546" fill="#ff00ff" opacity=".5"/>
 <g fill="none">
  <rect x="1.98" y="1.98" width="307.72" height="672.32" rx="34.617" ry="36.339" stroke="url(#linearGradient1836)" stroke-width="1.3142"/>
  <rect x="3.2988" y="3.2988" width="305.08" height="669.68" rx="32.925" ry="34.924" stroke="url(#linearGradient1852)" stroke-width="1.306"/>
  <path transform="scale(.26458)" d="m1170.5 1276.1 1e-4 1135.1c0 76.088-58.354 137.34-130.84 137.34h-901.36c-72.484 0-130.84-61.255-130.84-137.34v-1135.1" stroke="url(#linearGradient1844)" stroke-width="4.9669"/>
  <path transform="scale(.26458)" d="m1165.5 1276.1v1135.5c0 73.126-55.5 132-124.44 132h-904.18c-68.94 0-124.44-58.87-124.44-132v-1135.5" stroke="url(#linearGradient1875)" stroke-width="4.9359"/>
 </g>
</svg>
