<?xml version="1.0" encoding="UTF-8"?>
<svg width="56" height="56" version="1.1" viewBox="0 0 56 56" xmlns="http://www.w3.org/2000/svg">
 <defs>
  <linearGradient id="linearGradient2572" x1="8" x2="48" y1="8" y2="48" gradientUnits="userSpaceOnUse">
   <stop stop-color="#190d04" offset="0"/>
   <stop stop-color="#483424" offset=".5"/>
   <stop stop-color="#cfbdb0" offset="1"/>
  </linearGradient>
  <filter id="filter2582" x="-1.08e-5" y="-1.08e-5" width="1" height="1" color-interpolation-filters="sRGB">
   <feGaussianBlur stdDeviation="0.00024881212"/>
  </filter>
  <linearGradient id="linearGradient2677" x1="10" x2="46" y1="10" y2="46" gradientTransform="matrix(1.0572 0 0 1.0572 -1.6013 -1.6013)" gradientUnits="userSpaceOnUse">
   <stop stop-color="#cfbdb0" offset="0"/>
   <stop stop-color="#483424" offset=".5"/>
   <stop stop-color="#120e0b" offset="1"/>
  </linearGradient>
 </defs>
 <circle id="outerCircle" transform="matrix(1.0128 0 0 1.0128 -.35814 -.35813)" cx="28" cy="28" r="27.646" fill="url(#linearGradient2572)" filter="url(#filter2582)" stroke="#483424" stroke-width=".5"/>
 <circle id="innerCircle" cx="28" cy="28" r="25.207" fill="#483424" stroke="url(#linearGradient2677)" stroke-width="1.5"/>
 <path id="bgIcon" d="m35.012 34.319c-1.2682 0-2.4029 0.50061-3.2707 1.2849l-11.898-6.9252c0.08344-0.3838 0.15018-0.76761 0.15018-1.1681s-0.06676-0.7843-0.15018-1.1681l11.764-6.8584c0.9011 0.83436 2.0859 1.3517 3.4042 1.3517 2.7701 0 5.0061-2.2361 5.0061-5.0061 0-2.7701-2.2361-5.0061-5.0061-5.0061-2.7701 0-5.0061 2.2361-5.0061 5.0061 0 0.40049 0.06675 0.78429 0.15018 1.1681l-11.764 6.8584c-0.9011-0.83436-2.0859-1.3517-3.4042-1.3517-2.7701 0-5.0061 2.2361-5.0061 5.0061 0 2.7701 2.2361 5.0061 5.0061 5.0061 1.3183 0 2.5031-0.5173 3.4042-1.3517l11.881 6.9418c-0.08344 0.35043-0.1335 0.71755-0.1335 1.0847 0 2.6866 2.186 4.8726 4.8726 4.8726s4.8726-2.186 4.8726-4.8726-2.186-4.8726-4.8726-4.8726z" fill="#0e2410" fill-opacity=".75" stroke="#000000" stroke-opacity=".25" stroke-width="3.9632"/>
 <path id="fgIcon" d="m35.012 34.319c-1.2682 0-2.4029 0.50061-3.2707 1.2849l-11.898-6.9252c0.08344-0.3838 0.15018-0.76761 0.15018-1.1681s-0.06676-0.7843-0.15018-1.1681l11.764-6.8584c0.9011 0.83436 2.0859 1.3517 3.4042 1.3517 2.7701 0 5.0061-2.2361 5.0061-5.0061 0-2.7701-2.2361-5.0061-5.0061-5.0061-2.7701 0-5.0061 2.2361-5.0061 5.0061 0 0.40049 0.06675 0.78429 0.15018 1.1681l-11.764 6.8584c-0.9011-0.83436-2.0859-1.3517-3.4042-1.3517-2.7701 0-5.0061 2.2361-5.0061 5.0061 0 2.7701 2.2361 5.0061 5.0061 5.0061 1.3183 0 2.5031-0.5173 3.4042-1.3517l11.881 6.9418c-0.08344 0.35043-0.1335 0.71755-0.1335 1.0847 0 2.6866 2.186 4.8726 4.8726 4.8726s4.8726-2.186 4.8726-4.8726-2.186-4.8726-4.8726-4.8726z" fill="#0e2410" fill-opacity=".75" stroke="#808080" stroke-opacity=".75" stroke-width=".9908"/>
</svg>
